<?xml version="1.0" encoding="UTF-8" standalone="no"?>
<!-- Created with Inkscape (http://www.inkscape.org/) -->

<svg
   width="512"
   height="512"
   viewBox="0 0 512 512"
   version="1.1"
   id="svg1"
   xml:space="preserve"
   inkscape:version="1.3.2 (091e20e, 2023-11-25)"
   sodipodi:docname="icon.inkscape.svg"
   inkscape:export-filename="icon.1024.png"
   inkscape:export-xdpi="192"
   inkscape:export-ydpi="192"
   xmlns:inkscape="http://www.inkscape.org/namespaces/inkscape"
   xmlns:sodipodi="http://sodipodi.sourceforge.net/DTD/sodipodi-0.dtd"
   xmlns="http://www.w3.org/2000/svg"
   xmlns:svg="http://www.w3.org/2000/svg"><sodipodi:namedview
     id="namedview1"
     pagecolor="#505050"
     bordercolor="#ffffff"
     borderopacity="1"
     inkscape:showpageshadow="0"
     inkscape:pageopacity="0"
     inkscape:pagecheckerboard="1"
     inkscape:deskcolor="#505050"
     inkscape:document-units="px"
     inkscape:zoom="0.4609375"
     inkscape:cx="254.91525"
     inkscape:cy="254.91525"
     inkscape:window-width="1448"
     inkscape:window-height="904"
     inkscape:window-x="2198"
     inkscape:window-y="2185"
     inkscape:window-maximized="0"
     inkscape:current-layer="layer1"
     inkscape:export-bgcolor="#00000000" /><defs
     id="defs1" /><g
     inkscape:label="Layer 1"
     inkscape:groupmode="layer"
     id="layer1"><rect
       style="fill:#000000;fill-opacity:1"
       id="rect1"
       width="512"
       height="512"
       x="0"
       y="0"
       rx="64"
       ry="64"
       inkscape:label="rect1" /><path
       style="fill:#ffffff;fill-opacity:1"
       d="m 197.63129,449.95527 c -3.17951,-0.94401 -4.09789,-5.0656 -1.66975,-7.49373 L 197.42308,441 h 12.00591 c 6.60325,0 12.57129,0.21496 13.26231,0.47768 3.20363,1.21802 3.56771,5.55522 0.64842,7.72441 -1.57818,1.17267 -22.25524,1.77844 -25.70843,0.75318 z m 80.05585,0.20001 c -3.28484,-0.64451 -4.66604,-5.2533 -2.28726,-7.63208 L 276.92308,441 h 12.00591 c 14.79851,0 16.9362,0.76719 15.67859,5.62688 -0.89325,3.45173 -16.73128,5.52759 -26.92044,3.5284 z m 47.81343,-0.53106 c -7.85631,-3.92595 -2.75471,-8.60649 9.39202,-8.61685 10.95,-0.009 13.42767,1.36493 11.36428,6.30332 -1.34412,3.21692 -15.73798,4.82129 -20.7563,2.31353 z m -146.88609,0.0411 c -2.27105,-0.91375 -2.65931,-5.19744 -0.65294,-7.20381 4.23462,-4.23462 10.59466,1.42386 6.74401,6.0001 -1.27089,1.51037 -3.99226,2.04816 -6.09107,1.20371 z M 124.75,434.44876 c -3.67933,-2.13045 -3.83264,-7.84611 -0.26001,-9.69358 6.35336,-3.28545 12.50841,3.70604 7.49293,8.51118 -1.62329,1.55521 -5.49577,2.18827 -7.23292,1.1824 z m 28.13129,-0.23145 c -2.77652,-1.50653 -3.71332,-5.5247 -1.84251,-7.90304 2.0228,-2.57158 1.78883,-2.54529 25.46122,-2.8612 25.98309,-0.34674 29.34831,-0.88536 40.5,-6.48225 21.55759,-10.81948 30.99633,-27.78737 31.37844,-56.40855 l 0.21611,-16.18772 -2.92227,-2.98426 c -1.60726,-1.64135 -6.00895,-5.89211 -9.78154,-9.44615 l -6.85926,-6.46189 -21.94986,0.0281 -21.94987,0.0281 1.28365,3.1058 c 1.12979,2.73353 1.30806,3.98277 1.48719,10.42196 l 0.20353,7.31615 2.20504,1.55425 c 11.69896,8.24619 5.61092,26.76527 -8.81116,26.80248 -15.64658,0.0404 -20.71219,-19.91894 -7.17824,-28.28338 L 176,345.41844 v -4.48781 c 0,-13.78735 -2.41793,-15.13561 -27.38773,-15.27159 l -18.13774,-0.0988 -1.59875,2.84487 C 114.69342,353.6416 76.03813,332.96128 89.603372,307.39466 98.930564,289.81555 131,294.35569 131,313.25526 c 0,0.65406 5.22035,0.74162 42.875,0.71912 l 42.875,-0.0256 -8.25,-8.01473 c -26.38958,-25.63701 -20.55116,-23.50971 -65,-23.6836 -24.93356,-0.0976 -33.8753,-0.28947 -35.75,-0.76732 -3.63492,-0.92651 -7.50634,-2.71907 -10.297502,-4.76797 l -2.44422,-1.79422 -1.332931,1.04848 c -11.67525,9.18375 -27.406116,-6.85314 -18.902557,-19.27029 6.573667,-9.59906 25.155295,-5.27981 25.222326,5.86286 0.0063,1.04453 7.168814,5.76188 10.340214,6.81023 C 112.76048,270.17385 142,271.02348 142,270.29228 142,269.8249 130.43834,258.5 129.96118,258.5 c -5.63738,0 -7.78101,-12.86732 -2.88484,-17.31651 8.58973,-7.80556 22.26734,2.45002 16.81295,12.60647 l -0.82702,1.53996 5.09386,4.99537 c 2.80163,2.74744 6.40575,6.16071 8.00916,7.58503 l 2.9153,2.58968 h 10.736 c 15.38299,0 18.57702,0.94588 26.05841,7.71691 l 2.625,2.37576 0.062,-4.92134 c 0.16384,-12.99682 0.69036,-12.03561 -14.36155,-26.21798 -14.78449,-13.93039 -16.154,-16.22711 -12.0959,-20.28521 3.7465,-3.74651 5.05161,-3.00572 20.20293,11.46736 18.75005,17.91073 18.19248,16.78229 18.19248,36.81853 v 13.3487 l 14.10979,13.47363 c 7.76039,7.4105 16.31039,15.58248 19,18.15995 l 4.89021,4.6863 0,-27.90728 v -27.90728 l -7.125,-7.00297 c -34.47054,-33.88014 -33.50724,-32.63901 -34.20683,-44.07289 l -0.31771,-5.19255 -8.28854,-7.64482 c -4.5587,-4.20465 -9.3063,-8.55357 -10.55023,-9.66427 -1.24393,-1.1107 -4.73669,-4.27963 -7.76169,-7.04206 -3.025,-2.76244 -7.1875,-6.27264 -9.25,-7.80045 -3.72367,-2.75832 -16.98863,-15.07586 -36.6292,-34.01304 -8.5671,-8.26028 -10.48156,-9.875 -11.70813,-9.875 -9.3531,0 -14.68256,-13.91756 -8.0164,-20.93437 9.27606,-9.764 24.4558,-0.50957 20.79478,12.67767 -0.54911,1.97791 -0.53619,2.00886 1.67314,4.00909 1.22458,1.10869 9.06861,8.52036 17.43116,16.47038 8.36256,7.95001 15.8234,15.01926 16.57965,15.70945 l 1.375,1.25487 0,-18.5144 v -18.5144 l -1.95238,-0.58495 c -12.6475,-3.78928 -12.38342,-24.55997 0.36611,-28.79469 16.18083,-5.374406 28.16396,13.96944 15.97271,25.78407 L 184.5,129.87544 v 22.50518 l 0,22.50519 1.375,2.55979 c 0.97324,1.81185 4.29692,5.34287 11.375,12.08463 l 10,9.52483 0.25,-20.40253 c 0.27726,-22.62737 0.27553,-22.61568 3.64927,-24.67277 4.6374,-2.82759 6.19511,-1.83684 23.14256,14.71925 L 248.5,182.57909 V 136.6198 90.660515 l -1.2491,-0.569126 c -15.1227,-6.890365 -9.31848,-30.330084 7.4991,-30.284281 17.198,0.04684 22.47948,21.876401 7.375,30.482609 L 260.5,91.215608 V 139.3578 c 0,26.47821 0.1478,48.1422 0.32845,48.1422 0.18065,0 6.1994,-5.837 13.375,-12.97112 16.97179,-16.87367 17.84031,-17.4375 22.46134,-14.58154 3.61695,2.23539 3.5559,1.7436 3.83521,30.89784 l 0.25,26.09518 5.7599,-5.59518 c 3.16794,-3.07735 8.81911,-8.52018 12.55816,-12.09518 4.0394,-3.86217 7.28195,-7.4131 7.99011,-8.75 l 1.19183,-2.25 0.1364,-40.97125 0.1364,-40.97125 -2.20763,-2.27875 c -8.30723,-8.574857 -3.23404,-21.971502 8.41053,-22.209458 12.37114,-0.252803 17.70605,13.441672 8.68617,22.297008 l -2.91956,2.8663 0.12884,30.45943 0.12885,30.45944 8.02071,-7.82573 c 4.41139,-4.30416 12.58311,-12.22092 18.15938,-17.5928 l 10.13867,-9.76706 -0.60125,-2.38778 c -3.25346,-12.92065 11.5372,-21.81632 20.86259,-12.54755 7.29484,7.25054 2.87379,19.54704 -7.60354,21.14809 -2.28721,0.34951 -2.88546,0.89645 -35.76103,32.69405 l -13.30909,12.87268 -0.56405,3.9885 c -1.26197,8.92365 -4.15127,12.23428 -37.09239,42.50124 -6.55891,6.02645 -26.90301,25.56069 -38.11416,36.59691 l -4.40069,4.33201 0.0232,27.79299 c 0.0128,15.28614 0.17097,27.79298 0.35158,27.79298 0.1806,0 5.74225,-5.3667 12.35922,-11.926 6.61696,-6.5593 15.12459,-14.92366 18.90584,-18.58747 l 6.875,-6.66148 0.01,-11.78753 c 0.0181,-21.48835 -0.49815,-20.32454 16.3844,-36.93934 15.7787,-15.52845 17.71909,-16.76896 21.40729,-13.68584 4.19915,3.51024 3.1585,6.85353 -4.30159,13.81965 -21.84549,20.39903 -21.2326,19.51682 -21.24267,30.57702 l -0.007,8.05901 3.19426,-2.65126 c 7.8304,-6.4993 10.93587,-7.21676 31.23718,-7.21676 h 15.23403 l 0.16726,-10.875 c 0.30639,-19.92017 5.58161,-25.41244 24.97776,-26.00547 l 8.31049,-0.25409 0.57374,-2.55772 c 5.00074,-22.29351 39.25589,-20.97833 43.55145,1.67211 4.76734,25.13806 -29.20433,37.66672 -42.24617,15.58027 l -1.5,-2.54026 -7.55039,-0.01 c -13.67061,-0.018 -14.41615,0.76909 -14.43635,15.24008 l -0.0133,9.5 9.75,0.25 c 10.52036,0.26975 11.45104,0.48809 12.74482,2.98999 1.48024,2.86246 0.27606,6.65654 -2.51651,7.92892 -0.92848,0.42304 -9.72665,0.66457 -31.00957,0.85128 -40.24808,0.35309 -35.36962,-1.40197 -58.66409,21.10481 -5.76364,5.56875 -10.44004,10.17136 -10.392,10.22802 0.048,0.0567 20.63718,0.22541 45.75364,0.375 l 45.6663,0.27198 1.4587,1.63289 c 4.70887,5.27114 0.70467,9.6084 -8.89146,9.63101 l -5.89983,0.0139 7.60475,7.36109 c 8.89674,8.6117 9.57579,10.02195 6.62931,13.76781 -3.43658,4.36889 -6.57105,3.06834 -17.05166,-7.07506 C 363.15708,334.95998 357.9,329.8882 356.25,328.31103 l -3,-2.86759 -5.13599,0.22498 c -10.57712,0.46333 -14.62522,4.6998 -14.60635,15.28605 0.009,4.83646 0.0435,4.92378 2.58238,6.46609 12.809,7.78117 7.11564,27.72244 -7.91934,27.73784 -13.87062,0.0142 -20.08406,-16.95094 -9.64552,-26.33609 L 321,346.59724 l 0.0129,-6.42362 c 0.0127,-6.3026 0.49684,-8.76863 2.70922,-13.79862 0.36327,-0.82591 -0.84969,-0.875 -21.61948,-0.875 h -22.00434 l -9.67416,9.43479 -9.67415,9.43479 0.0487,15.44021 c 0.10689,33.87198 14.22231,53.93933 43.65333,62.06026 l 4.79795,1.3239 36.5,0.27803 c 27.75824,0.21143 36.76015,0.42695 37.58622,0.89986 4.13588,2.3677 4.12764,7.84504 -0.0148,9.81074 -2.51204,1.19204 -228.24455,1.22606 -230.44017,0.0347 z m 95.61265,-19.59231 -0.006,-8.875 -6.11894,6.30339 c -3.36542,3.46687 -7.46894,7.45743 -9.11894,8.86793 l -3,2.56454 9.125,0.007 9.125,0.007 z m 25.75606,5.27256 c -5.09266,-4.58213 -7.77151,-7.36076 -10.86778,-11.27256 -1.36043,-1.71875 -2.56546,-3.125 -2.67786,-3.125 -0.1124,0 -0.20436,4.05 -0.20436,9 v 9 l 8.875,-0.002 8.875,-0.002 z M 112.05039,327.43095 c 5.66676,-1.89731 8.6099,-7.55611 6.71246,-12.90613 -3.63437,-10.24746 -18.42539,-8.54455 -19.643397,2.26157 -0.768386,6.8171 6.497747,12.79847 12.930937,10.64456 z m 171.57461,-94.9677 4.875,-4.75133 v -25.21216 -25.21217 l -2.60406,2.48121 C 257.62771,206.7034 260.5,200.95635 260.5,230.58244 v 24.6321 l 9.125,-8.99999 c 5.01875,-4.94999 11.31875,-11.13808 14,-13.7513 z M 248.5,227.06002 v -27.43998 l -14.51713,-14.13672 -14.51714,-14.13673 0.14214,26.20171 0.14213,26.2017 1.22031,2.5 c 0.90187,1.84762 3.83758,5.04357 11.25,12.24725 5.51633,5.36099 11.37969,11.12146 13.02969,12.80105 1.65,1.6796 3.05625,3.08709 3.125,3.12776 0.0687,0.0407 0.125,-12.27405 0.125,-27.36604 z m 172.28537,19.49357 c 1.11945,-0.50844 2.72816,-1.76491 3.5749,-2.79215 8.52135,-10.33789 -6.14616,-23.35431 -15.44552,-13.70686 -7.64129,7.92733 1.81256,21.06728 11.87062,16.49901 z M 406,434.14689 C 401.09625,432.35429 402.30229,425 407.5,425 c 5.35906,0 6.27703,7.08873 1.16944,9.03063 -1.34961,0.51312 -1.55886,0.52223 -2.66944,0.11626 z M 98.727273,432.77273 C 97.824242,431.8697 97.5,431.00505 97.5,429.5 c 0,-4.37145 4.95784,-6.2271 7.75518,-2.90266 3.59787,4.27583 -2.58165,10.12165 -6.527907,6.17539 z M 381.75,386.658 c -9.54159,-2.12932 -12.8453,-11.94147 -6.29409,-18.69368 8.4138,-8.67193 22.49725,0.63798 17.82864,11.78568 -1.8914,4.51627 -7.41864,7.82651 -11.53455,6.908 z m -260.01698,-0.85802 c -8.15783,-3.55396 -8.32139,-15.83982 -0.26527,-19.92498 10.56468,-5.35722 20.35301,6.20148 13.75495,16.24274 -2.44346,3.71858 -9.18328,5.55833 -13.48968,3.68224 z m 24.42467,-22.78455 c -2.92774,-1.23033 -3.00702,-6.29198 -0.12193,-7.78392 2.09806,-1.08495 3.3739,-0.89877 5.0027,0.73003 3.42368,3.42368 -0.39305,8.93978 -4.88077,7.05389 z m 213.02435,-0.0809 c -2.32703,-1.16894 -2.82997,-4.62553 -0.98511,-6.77031 2.61586,-3.04112 7.30307,-1.22793 7.30307,2.8251 0,3.07865 -3.5857,5.31772 -6.31796,3.94521 z m -229.2205,-14.8961 c -4.12265,-4.12265 1.72454,-10.47589 6.13512,-6.6661 2.09931,1.81335 1.44326,6.0642 -1.14226,7.40122 -2.0881,1.0798 -3.36611,0.89163 -4.99286,-0.73512 z m 275.22081,-18.55312 c -6.66119,-2.0575 -11.78485,-9.62461 -10.92631,-16.13705 2.17752,-16.51755 24.94996,-18.8031 29.55388,-2.96616 3.29056,11.31913 -7.6162,22.50439 -18.62757,19.10321 z M 144.31818,303.68182 C 141.22161,300.58525 143.45921,295 147.79635,295 c 2.6124,0 4.70365,2.22301 4.70365,5 0,4.40348 -5.14493,6.7187 -8.18182,3.68182 z m 211.14336,-0.14336 c -2.80342,-2.80342 -1.46302,-7.61767 2.31846,-8.32708 2.49914,-0.46884 4.68853,0.59119 5.56788,2.69577 2.13493,5.1096 -4.01596,9.5017 -7.88634,5.63131 z m 52.93414,-19.01451 c -6.01198,-1.89287 -7.69695,-8.85872 -3.22303,-13.32431 6.58969,-6.57742 16.81529,1.51077 12.0944,9.56637 -1.76977,3.01989 -5.7971,4.72588 -8.87137,3.75794 z M 164.65427,258.91122 c -4.89415,-1.3024 -4.8229,-8.9964 0.0957,-10.33797 4.87163,-1.32874 8.46612,3.85598 5.75548,8.30175 -0.54493,0.89375 -1.05182,1.625 -1.12643,1.625 -0.0746,0 -0.80917,0.18807 -1.63235,0.41794 -0.82319,0.22986 -2.21478,0.22684 -3.09243,-0.007 z m 172.2333,-0.69062 C 335.1156,257.25899 334.5,256.04041 334.5,253.49441 c 0,-5.11733 6.95567,-6.93115 9.2875,-2.4219 2.36566,4.57469 -2.44964,9.56317 -6.89993,7.14809 z M 95.045949,236.70711 C 78.896685,232.36482 82.017992,208.87369 98.75,208.83022 c 4.37914,-0.0114 7.28366,1.28298 10.43211,4.64893 9.52732,10.18548 -0.62162,26.86181 -14.136161,23.22796 z m 61.613391,-8.68075 c -2.79434,-1.70383 -32.12883,-28.99327 -33.30339,-30.98164 -2.97061,-5.02884 2.10538,-10.24557 7.84561,-8.06314 1.1821,0.44944 5.41372,4.23852 22.30636,19.97359 3.71685,3.46216 7.65435,7.08744 8.75,8.05619 4.25375,3.7611 5.08465,5.90894 3.48362,9.00501 -1.49697,2.89482 -5.99755,3.89085 -9.0822,2.00999 z m -29.28572,-3.51845 c -3.7583,-2.95628 -0.85552,-9.17861 3.86848,-8.29238 5.57901,1.04663 4.29407,9.28447 -1.4482,9.28447 -0.63747,0 -1.7266,-0.44644 -2.42028,-0.99209 z M 351.7,223.8 c -1.89171,-1.89171 -2.20717,-3.8689 -0.99216,-6.21846 0.70731,-1.36781 28.44238,-27.41983 35.86296,-33.6867 l 2.32081,-1.95998 0.221,-5.34243 c 1.08696,-26.27494 37.40979,-31.0046 43.38515,-5.64925 4.69333,19.91523 -21.21728,36.6796 -34.79196,22.51068 -2.08113,-2.17223 -0.93392,-2.84812 -11.52091,6.78764 -2.71419,2.47032 -7.63489,6.9763 -10.93489,10.01328 -18.52052,17.04437 -19.49205,17.60317 -23.55,13.54522 z m 64.5292,-38.93747 c 9.84689,-5.57725 3.98661,-20.61727 -7.14022,-18.3249 -5.7352,1.18157 -9.33832,7.19065 -7.50281,12.51276 2.09418,6.07217 9.20253,8.89363 14.64303,5.81214 z m -31.5507,39.65245 c -2.76867,-1.14512 -3.56995,-5.16898 -1.45123,-7.28771 1.54692,-1.54691 4.12635,-1.62963 5.9553,-0.19098 3.61929,2.84694 -0.23387,9.24484 -4.50407,7.47869 z M 99.099357,185.20587 c -6.363276,-3.17096 -8.926862,-10.51048 -5.923702,-16.95951 5.713953,-12.27022 24.326245,-8.25454 24.390895,5.26245 0.0463,9.67168 -9.89529,15.96862 -18.467193,11.69706 z m 29.582683,-22.77969 c -2.58253,-1.27702 -2.6202,-5.41536 -0.0613,-6.7386 2.77929,-1.43722 5.3793,0.1436 5.3793,3.27064 0,2.87686 -2.80894,4.70863 -5.31796,3.46796 z m 184.5506,-2.41426 c -2.69558,-1.05998 -3.26141,-4.92863 -1.00476,-6.86972 3.80043,-3.269 9.02249,1.84506 5.64712,5.53032 -1.27446,1.39147 -3.14067,1.9299 -4.64236,1.3394 z m -42.00537,-4.23919 c -1.36093,-1.36093 -1.66805,-4.40721 -0.58637,-5.81606 1.80197,-2.347 5.53786,-2.40843 7.33743,-0.12065 3.33623,4.24133 -2.93323,9.75453 -6.75106,5.93671 z M 290.5,145.70403 c -11.36568,-4.91537 -8.70912,-22.2815 3.60142,-23.54277 11.00697,-1.12772 17.53946,10.68892 10.91852,19.75055 -2.94738,4.03388 -9.81424,5.82731 -14.51994,3.79222 z m -80.44496,-4.87457 c -3.43588,-1.98261 -3.41494,-6.84199 0.0372,-8.62715 5.48449,-2.83614 10.44087,4.32808 5.71036,8.25405 -1.14778,0.95258 -4.37973,1.16238 -5.74754,0.3731 z m -0.34489,-22.74406 c -2.49852,-1.56925 -2.79563,-2.9861 -2.61888,-12.48892 l 0.15873,-8.533571 1.41665,-1.477284 c 3.487,-3.636258 8.49203,-2.036372 9.89933,3.164375 3.03303,11.20873 -2.51351,23.31879 -8.85583,19.3354 z m 80.52125,-12.38107 c -6.97309,-2.47588 -10.52956,-11.105959 -7.52865,-18.268969 4.27693,-10.20884 19.76016,-10.610667 24.54729,-0.637062 5.209,10.852525 -5.66827,22.936101 -17.01864,18.906031 z m -62.00413,-4.4316 C 225.91592,98.961378 227.39252,94.5 230.46886,94.5 c 4.30889,0 5.5319,5.371594 1.68901,7.41833 -1.631,0.86867 -2.57066,0.71434 -3.9306,-0.6456 z M 206.84249,81.99157 c -6.65229,-1.996741 -9.19283,-10.933191 -4.64479,-16.338225 2.79243,-3.318619 7.7302,-4.474987 11.5523,-2.705413 11.1258,5.151076 4.81086,22.561011 -6.90751,19.043638 z"
       id="path1" /></g></svg>
